<svg xmlns="http://www.w3.org/2000/svg" viewBox="0 0 64 64"><defs><style>.cls-1{fill:#0072ff}</style></defs><g id="Layer_2" data-name="Layer 2"><path class="cls-1" d="M39.87 48H18a2 2 0 1 0 0 4h23.21A10.79 10.79 0 0 0 52 41.21V17.9a2 2 0 0 0-2.34-2A2.08 2.08 0 0 0 48 18v21.87A8.13 8.13 0 0 1 39.87 48z"/><path class="cls-1" d="M43.71 56H30a2 2 0 1 0 0 4h14.56A15.43 15.43 0 0 0 60 44.56V42a2 2 0 0 0-2.34-2A2.08 2.08 0 0 0 56 42.11v1.6A12.29 12.29 0 0 1 43.71 56zM12.24 44h23.52A8.24 8.24 0 0 0 44 35.76V12.24A8.24 8.24 0 0 0 35.76 4H12.24A8.24 8.24 0 0 0 4 12.24v23.52A8.24 8.24 0 0 0 12.24 44zM24 12a6 6 0 1 1-6 6 6 6 0 0 1 6-6zm-8.18 13.61a1.51 1.51 0 0 1 1.82.09 10 10 0 0 0 12.73 0 1.51 1.51 0 0 1 1.82-.09 8.89 8.89 0 0 1 3.81 7.3A3.09 3.09 0 0 1 32.91 36H15.09A3.09 3.09 0 0 1 12 32.91a8.89 8.89 0 0 1 3.82-7.3zM58 24a2 2 0 0 0-2 2v8a2 2 0 0 0 4 0v-8a2 2 0 0 0-2-2z"/></g></svg>